<?xml version="1.0" encoding="iso-8859-1"?>
<!-- Uploaded to: SVG Repo, www.svgrepo.com, Generator: SVG Repo Mixer Tools -->
<svg version="1.1" id="Layer_1" xmlns="http://www.w3.org/2000/svg" xmlns:xlink="http://www.w3.org/1999/xlink" 
	 viewBox="0 0 512 512" xml:space="preserve">
<path style="fill:#00B3E3;" d="M470.182,178.402c-3.023-5.073-10.324-9.224-16.227-9.224H58.047c-5.905,0-13.209,4.151-16.229,9.224
	l-30.952,51.975c-3.021,5.073-0.663,9.224,5.241,9.224H495.89c5.904,0,8.264-4.151,5.243-9.224L470.182,178.402z"/>
<path style="opacity:0.1;enable-background:new    ;" d="M23.945,208.414h193.76v-16.385H33.703L23.945,208.414z M478.297,192.029
	H292.09v16.385h195.964L478.297,192.029z"/>
<polygon style="fill:#D1D3D3;" points="310.682,236.979 254.895,147.44 199.108,236.979 11.854,236.979 11.854,453.626 
	497.934,453.626 497.934,236.979 "/>
<path style="opacity:0.1;enable-background:new    ;" d="M328.129,248.619c-4.053,0-9.129-2.811-11.28-6.244l-3.382-5.395h-2.787
	l-51.987-83.44c-2.48-1.12-5.121-1.119-7.601,0.002l-51.985,83.438h-2.78l-3.382,5.395c-2.152,3.434-7.228,6.244-11.281,6.244
	H11.854v28.79h178.958c4.053,0,9.034-2.866,11.071-6.371l43.7-66.912c5.122-8.739,13.507-8.739,18.629,0l43.7,66.912
	c2.037,3.504,7.018,6.371,11.071,6.371h178.95v-28.79H328.129z"/>
<g>
	<rect x="450.724" y="282.567" style="fill:#A4A9AD;" width="47.211" height="22.719"/>
	<rect x="309.112" y="329.603" style="fill:#A4A9AD;" width="47.211" height="22.718"/>
	<rect x="394.61" y="410.251" style="fill:#A4A9AD;" width="47.211" height="22.718"/>
	<rect x="149.564" y="416.281" style="fill:#A4A9AD;" width="47.211" height="22.719"/>
	<rect x="11.854" y="304.381" style="fill:#A4A9AD;" width="47.211" height="22.719"/>
	<rect x="125.958" y="257.356" style="fill:#A4A9AD;" width="47.211" height="22.718"/>
</g>
<rect x="214.351" y="342.078" style="fill:#333E48;" width="81.096" height="111.55"/>
<rect x="214.351" y="342.078" style="opacity:0.1;enable-background:new    ;" width="81.096" height="14.099"/>
<g>
	<rect x="229.819" y="367.89" style="fill:#FFFFFF;" width="16.385" height="30.87"/>
	<rect x="263.583" y="367.89" style="fill:#FFFFFF;" width="16.385" height="30.87"/>
	<rect x="129.563" y="323.268" style="fill:#FFFFFF;" width="47.662" height="65.574"/>
</g>
<rect x="129.563" y="323.268" style="opacity:0.2;enable-background:new    ;" width="47.662" height="14.46"/>
<rect x="129.563" y="347.867" style="fill:#A93439;" width="47.662" height="16.385"/>
<path style="fill:#FF5959;" d="M177.231,397.043h-47.662c-4.524,0-8.193-3.668-8.193-8.193v-65.577c0-4.525,3.668-8.193,8.193-8.193
	h47.662c4.524,0,8.193,3.668,8.193,8.193v65.577C185.424,393.374,181.755,397.043,177.231,397.043z M137.76,380.657h31.277v-49.192
	H137.76V380.657z"/>
<rect x="37.073" y="323.268" style="fill:#FFFFFF;" width="47.662" height="65.574"/>
<rect x="37.073" y="323.268" style="opacity:0.2;enable-background:new    ;" width="47.662" height="14.46"/>
<rect x="37.073" y="347.867" style="fill:#A93439;" width="47.662" height="16.385"/>
<path style="fill:#FF5959;" d="M84.737,397.043H37.073c-4.524,0-8.193-3.668-8.193-8.193v-65.577c0-4.525,3.668-8.193,8.193-8.193
	h47.662c4.524,0,8.193,3.668,8.193,8.193v65.577C92.929,393.374,89.261,397.043,84.737,397.043z M45.266,380.657h31.277v-49.192
	H45.266V380.657z"/>
<rect x="332.565" y="323.268" style="fill:#FFFFFF;" width="47.662" height="65.574"/>
<rect x="332.565" y="323.268" style="opacity:0.2;enable-background:new    ;" width="47.662" height="14.46"/>
<rect x="332.565" y="347.867" style="fill:#A93439;" width="47.662" height="16.385"/>
<path style="fill:#FF5959;" d="M380.228,397.043h-47.662c-4.524,0-8.193-3.668-8.193-8.193v-65.577c0-4.525,3.668-8.193,8.193-8.193
	h47.662c4.525,0,8.193,3.668,8.193,8.193v65.577C388.421,393.374,384.753,397.043,380.228,397.043z M340.758,380.657h31.277v-49.192
	h-31.277V380.657z"/>
<rect x="425.054" y="323.268" style="fill:#FFFFFF;" width="47.662" height="65.574"/>
<rect x="425.054" y="323.268" style="opacity:0.2;enable-background:new    ;" width="47.662" height="14.46"/>
<rect x="425.054" y="347.867" style="fill:#A93439;" width="47.662" height="16.385"/>
<path style="fill:#FF5959;" d="M472.723,397.043H425.06c-4.525,0-8.193-3.668-8.193-8.193v-65.577c0-4.525,3.668-8.193,8.193-8.193
	h47.662c4.524,0,8.193,3.668,8.193,8.193v65.577C480.915,393.374,477.247,397.043,472.723,397.043z M433.252,380.657h31.277v-49.192
	h-31.277V380.657z"/>
<rect x="254.899" y="49.471" style="fill:#FFB819;" width="94.63" height="54.236"/>
<rect x="254.899" y="49.471" style="opacity:0.1;enable-background:new    ;" width="24.774" height="54.236"/>
<path style="fill:#333E48;" d="M254.897,155.633c-4.525,0-8.193-3.668-8.193-8.193V41.946c0-4.524,3.668-8.193,8.193-8.193
	c4.524,0,8.193,3.668,8.193,8.193V147.44C263.089,151.965,259.421,155.633,254.897,155.633z"/>
<path style="fill:#0071CE;" d="M264.68,139.086c-5.38-8.584-14.184-8.584-19.564,0l-52.169,83.247
	c-2.152,3.433-7.228,6.243-11.281,6.243H7.368c-4.052,0-7.368,3.315-7.368,7.368v14.054c0,4.052,3.316,7.368,7.368,7.368h183.444
	c4.053,0,9.034-2.866,11.071-6.369l43.7-66.912c5.122-8.74,13.507-8.74,18.629,0l43.7,66.912c2.037,3.503,7.018,6.369,11.071,6.369
	h183.441c4.053,0,7.369-3.316,7.369-7.368v-14.054c0-4.052-3.316-7.368-7.369-7.368H328.13c-4.053,0-9.129-2.81-11.28-6.243
	L264.68,139.086z"/>
<circle style="fill:#FFFFFF;" cx="254.899" cy="282.567" r="37.194"/>
<path style="fill:#333E48;" d="M269.144,274.374h-6.054v-6.054c0-4.524-3.668-8.193-8.193-8.193c-4.525,0-8.193,3.668-8.193,8.193
	v14.246c0,4.525,3.668,8.193,8.193,8.193h14.246c4.525,0,8.193-3.668,8.193-8.193S273.669,274.374,269.144,274.374z"/>
<path style="fill:#00AD68;" d="M512,473.831c0,2.427-1.985,4.413-4.412,4.413H4.413c-2.427,0-4.413-1.986-4.413-4.413v-15.792
	c0-2.427,1.986-4.413,4.413-4.413h503.175c2.427,0,4.412,1.986,4.412,4.413V473.831z"/>
<rect x="189.915" y="453.628" style="fill:#A4A9AD;" width="132.163" height="24.618"/>
<g>
	<path style="fill:#218649;" d="M486.233,453.626c0-20.624-16.718-37.342-37.342-37.342c-20.624,0-37.342,16.718-37.342,37.342
		H486.233z"/>
	<path style="fill:#218649;" d="M122.078,453.626c0-20.624-16.718-37.342-37.342-37.342s-37.342,16.718-37.342,37.342H122.078z"/>
</g>
</svg>