<?xml version="1.0" encoding="utf-8"?>
<!-- Uploaded to: SVG Repo, www.svgrepo.com, Generator: SVG Repo Mixer Tools -->
<svg width="800px" height="800px" viewBox="0 0 1024 1024" class="icon"  version="1.1" xmlns="http://www.w3.org/2000/svg"><path d="M597.333333 192l42.666667-128M426.666667 192l-42.666667-128M298.666667 117.333333A53.333333 53.333333 0 0 1 352 64h320A53.333333 53.333333 0 0 1 725.333333 117.333333" fill="none" /><path d="M304.789333 981.376l89.066667-160.341333-37.290667-20.693334L256 981.376zM719.210667 981.376l-89.066667-160.341333 37.290667-20.693334L768 981.376z" fill="#607D8B" /><path d="M810.666667 832V288A138.666667 138.666667 0 0 0 672 149.333333h-320a138.666667 138.666667 0 0 0-138.666667 138.666667V832s-0.021333 42.666667 42.666667 42.666667h512c42.666667 0 42.666667-42.666667 42.666667-42.666667z" fill="#CFD8DC" /><path d="M213.333333 554.666667v277.333333s-0.021333 42.666667 42.666667 42.666667h512c42.666667 0 42.666667-42.666667 42.666667-42.666667V554.666667H213.333333z" fill="#FF3D00" /><path d="M512 576c-47.061333 0-85.333333 38.272-85.333333 85.333333s38.272 85.333333 85.333333 85.333334 85.333333-38.272 85.333333-85.333334-38.272-85.333333-85.333333-85.333333z" fill="#DD2C00" /><path d="M512 661.333333m-42.666667 0a42.666667 42.666667 0 1 0 85.333334 0 42.666667 42.666667 0 1 0-85.333334 0Z" fill="#F9FBE7" /><path d="M640 213.333333a21.333333 21.333333 0 0 1-21.333333 21.333334H405.333333a21.333333 21.333333 0 1 1 0-42.666667h213.333334a21.333333 21.333333 0 0 1 21.333333 21.333333z" fill="#90A4AE" /><path d="M384 768h256v64H384z" fill="#911F05" /><path d="M362.666667 277.333333h-74.666667a32 32 0 0 0-32 32v170.666667a32 32 0 0 0 32 32H362.666667V277.333333zM405.333333 277.333333h213.333334v234.666667H405.333333zM736 277.333333H661.333333v234.666667h74.666667a32 32 0 0 0 32-32v-170.666667a32 32 0 0 0-32-32z" fill="#455A64" /></svg>