<?xml version="1.0" encoding="iso-8859-1"?>
<!-- Uploaded to: SVG Repo, www.svgrepo.com, Generator: SVG Repo Mixer Tools -->
<!DOCTYPE svg PUBLIC "-//W3C//DTD SVG 1.1//EN" "http://www.w3.org/Graphics/SVG/1.1/DTD/svg11.dtd">
<svg version="1.1" id="Capa_1" xmlns="http://www.w3.org/2000/svg" xmlns:xlink="http://www.w3.org/1999/xlink" 
	 viewBox="0 0 468.089 468.089" xml:space="preserve">
<g>
	<path style="fill:#D14253;" d="M316.31,418.906c0,0-8.702,8.722-5.216,11.702c3.486,2.98,4.253-1.923,7.274,0.316
		s5.354,1.959,6.598-0.294c1.245-2.253-5.256-12.857-5.256-12.857L316.31,418.906z"/>
	<polygon style="fill:#FBB03B;" points="295.423,181.679 294.753,192.339 277.473,468.089 197.473,468.089 180.193,192.339 
		179.524,181.679 	"/>
	<path style="fill:#6BC0DD;" d="M147.512,30.418c1.034,0.12,2.045,0.331,3.019,0.619c7.74,2.267,13.387,9.43,13.387,17.898
		c0,2.117-0.367,4.138-1.01,6.038c13.051,1.834,23.094,13.051,23.094,26.606H70.087c1.329-9.43,8.245-17.056,17.296-19.407
		c-0.174-0.866-0.265-1.756-0.265-2.676c0-6.922,5.244-12.624,11.974-13.357c0.481-0.054,0.968-0.084,1.467-0.084
		c0.024,0,0.042,0.012,0.066,0.012c1.095-3.356,3.139-6.273,5.816-8.438c1.485-1.209,3.163-2.189,4.986-2.875
		c0.764-0.289,1.552-0.529,2.364-0.71c1.299-0.313,2.658-0.463,4.047-0.463c1.125,0,2.231,0.102,3.296,0.301
		c0.794,0.15,1.57,0.349,2.321,0.595c1.822,0.601,3.518,1.479,5.028,2.586c0.517,0.373,1.016,0.776,1.485,1.203
		c1.461-2.087,3.344-3.867,5.515-5.196c0.114-0.078,0.235-0.15,0.349-0.217c2.201-1.305,4.691-2.165,7.349-2.454
		c0.686-0.084,1.377-0.12,2.081-0.12C146.021,30.279,146.773,30.328,147.512,30.418z"/>
	<path style="fill:#6BC0DD;" d="M320.577,83.418c-1.034,0.12-2.045,0.331-3.019,0.619c-7.74,2.267-13.387,9.43-13.387,17.898
		c0,2.117,0.367,4.138,1.01,6.038c-13.051,1.834-23.094,13.051-23.094,26.606h115.915c-1.329-9.43-8.245-17.056-17.296-19.407
		c0.174-0.866,0.265-1.756,0.265-2.676c0-6.922-5.244-12.624-11.974-13.357c-0.481-0.054-0.968-0.084-1.467-0.084
		c-0.024,0-0.042,0.012-0.066,0.012c-1.095-3.356-3.139-6.273-5.816-8.438c-1.485-1.209-3.163-2.189-4.986-2.875
		c-0.764-0.289-1.552-0.529-2.364-0.71c-1.299-0.313-2.658-0.463-4.047-0.463c-1.125,0-2.231,0.102-3.296,0.301
		c-0.794,0.15-1.57,0.349-2.321,0.595c-1.822,0.601-3.518,1.479-5.028,2.586c-0.517,0.373-1.016,0.776-1.485,1.203
		c-1.461-2.087-3.344-3.867-5.515-5.196c-0.114-0.078-0.235-0.15-0.349-0.217c-2.201-1.305-4.691-2.165-7.349-2.454
		c-0.686-0.084-1.377-0.12-2.081-0.12C322.069,83.279,321.317,83.328,320.577,83.418z"/>
	<polygon style="fill:#E29A3B;" points="295.423,181.679 294.753,192.339 180.193,192.339 179.524,181.679 	"/>
	<rect x="198.678" y="168.264" style="fill:#E5C273;" width="22.989" height="34.485"/>
	<rect x="247.532" y="168.264" style="fill:#E5C273;" width="22.989" height="34.485"/>
	<polygon style="fill:#E5C273;" points="169.462,181.675 180.933,202.749 179.52,181.675 	"/>
	<polygon style="fill:#E5C273;" points="305.485,181.675 294.014,202.749 295.427,181.675 	"/>
	<polygon style="fill:#FCD983;" points="316.044,181.679 158.903,181.679 159.653,176.089 161.274,164.089 167.284,119.509 
		168.623,109.539 306.324,109.539 307.663,119.509 313.673,164.089 315.294,176.089 	"/>
	<path style="fill:#EA535E;" d="M337.574,109.539h-200.2c0,0,77.54-17.8,96.29-77.95c1.98-6.33,3.3-13.12,3.81-20.42
		c0.51,7.3,1.83,14.09,3.81,20.42C260.034,91.739,337.574,109.539,337.574,109.539z"/>
	<path style="fill:#D14253;" d="M241.284,31.589c-1.19,0.43-2.47,0.67-3.81,0.67s-2.62-0.24-3.81-0.67
		c1.98-6.33,3.3-13.12,3.81-20.42C237.983,18.469,239.304,25.259,241.284,31.589z"/>
	<polygon style="fill:#E5C273;" points="315.294,176.089 159.653,176.089 161.274,164.089 313.673,164.089 	"/>
	<polygon style="fill:#FBB03B;" points="318.807,170.756 156.14,170.756 158.361,158.756 316.586,158.756 	"/>
	<path style="fill:#4D4D4D;" d="M205.203,132.839v25.92h-18.5v-25.92c0-5.11,4.15-9.25,9.25-9.25
		C201.064,123.589,205.203,127.729,205.203,132.839z"/>
	<path style="fill:#4D4D4D;" d="M278.989,123.589L278.989,123.589c-5.109,0-9.25,4.141-9.25,9.25v25.917h18.5v-25.917
		C288.239,127.731,284.098,123.589,278.989,123.589z"/>
	<path style="fill:#4D4D4D;" d="M237.473,123.589L237.473,123.589c-5.109,0-9.25,4.141-9.25,9.25v25.917h18.5v-25.917
		C246.723,127.731,242.582,123.589,237.473,123.589z"/>
	<polygon style="fill:#E5C273;" points="307.663,119.509 167.284,119.509 168.623,109.539 306.324,109.539 	"/>
	<circle style="fill:#FCD983;" cx="237.473" cy="11.167" r="11.167"/>
	<path style="fill:#E29A3B;" d="M204.723,232.089h-10.5c-2.071,0-3.75-1.679-3.75-3.75v0c0-2.071,1.679-3.75,3.75-3.75h10.5
		c2.071,0,3.75,1.679,3.75,3.75v0C208.473,230.411,206.795,232.089,204.723,232.089z"/>
	<path style="fill:#E29A3B;" d="M217.723,245.339h-10.5c-2.071,0-3.75-1.679-3.75-3.75v0c0-2.071,1.679-3.75,3.75-3.75h10.5
		c2.071,0,3.75,1.679,3.75,3.75v0C221.473,243.661,219.795,245.339,217.723,245.339z"/>
	<path style="fill:#E29A3B;" d="M272.973,309.089h-10.5c-2.071,0-3.75-1.679-3.75-3.75l0,0c0-2.071,1.679-3.75,3.75-3.75h10.5
		c2.071,0,3.75,1.679,3.75,3.75l0,0C276.723,307.411,275.045,309.089,272.973,309.089z"/>
	<path style="fill:#E29A3B;" d="M217.473,381.589h-10.5c-2.071,0-3.75-1.679-3.75-3.75l0,0c0-2.071,1.679-3.75,3.75-3.75h10.5
		c2.071,0,3.75,1.679,3.75,3.75l0,0C221.223,379.911,219.545,381.589,217.473,381.589z"/>
	<path style="fill:#E29A3B;" d="M263.723,321.339h-10.5c-2.071,0-3.75-1.679-3.75-3.75l0,0c0-2.071,1.679-3.75,3.75-3.75h10.5
		c2.071,0,3.75,1.679,3.75,3.75l0,0C267.473,319.661,265.795,321.339,263.723,321.339z"/>
	<path style="fill:#E29A3B;" d="M257.723,417.839h-10.5c-2.071,0-3.75-1.679-3.75-3.75l0,0c0-2.071,1.679-3.75,3.75-3.75h10.5
		c2.071,0,3.75,1.679,3.75,3.75l0,0C261.473,416.161,259.795,417.839,257.723,417.839z"/>
	<path style="fill:#A67C52;" d="M100.733,209.379c-1.56-0.16-3.04-0.99-3.99-2.39c-0.95-1.41-1.17-3.1-0.73-4.61
		c-1.54-0.38-2.9-1.42-3.64-2.96c-0.74-1.54-0.7-3.26-0.03-4.7c-1.47-0.61-2.65-1.86-3.14-3.5c-0.48-1.64-0.17-3.33,0.72-4.64
		c-1.34-0.85-2.31-2.27-2.53-3.96c-0.21-1.7,0.37-3.31,1.45-4.46c-1.19-1.04-1.92-2.58-1.88-4.28c0.04-1.71,0.85-3.22,2.1-4.19
		c-1.04-1.19-1.56-2.81-1.3-4.49h0.01c0.26-1.66,1.24-3.03,2.58-3.84c-0.87-1.29-1.2-2.94-0.75-4.56c0.45-1.61,1.57-2.86,2.97-3.52
		c-0.75-1.4-0.88-3.12-0.21-4.71c0.7-1.67,2.12-2.81,3.75-3.21c-0.48-1.63-0.21-3.45,0.9-4.9c1.12-1.48,2.84-2.22,4.56-2.16
		c-0.01-1.73,0.77-3.43,2.27-4.51c1.49-1.08,3.33-1.31,4.95-0.78c0.45-1.62,1.65-3.02,3.35-3.67c1.66-0.63,3.44-0.4,4.85,0.47
		c0.79-1.43,2.2-2.49,3.94-2.77c1.7-0.27,3.34,0.26,4.54,1.33c0.99-1.23,2.51-2.03,4.22-2.05c1.68-0.02,3.19,0.72,4.22,1.9
		c1.11-1.08,2.68-1.68,4.34-1.52c1.65,0.16,3.06,1.03,3.95,2.28c1.2-0.96,2.78-1.41,4.41-1.12c1.61,0.29,2.93,1.25,3.72,2.55
		c1.25-0.86,2.84-1.2,4.43-0.82c1.58,0.39,2.83,1.42,3.54,2.75c1.29-0.78,2.89-1.03,4.44-0.57c1.55,0.47,2.74,1.55,3.38,2.91
		c1.32-0.72,2.92-0.9,4.44-0.37c1.52,0.53,2.66,1.66,3.25,3.03c1.34-0.66,2.94-0.78,4.44-0.19c1.5,0.58,2.59,1.75,3.13,3.14
		c1.36-0.61,2.96-0.68,4.43-0.05c0.32,0.14,0.62,0.3,0.89,0.49c1.02,0.67,1.75,1.65,2.14,2.75c1.37-0.57,2.97-0.59,4.42,0.09
		c1.46,0.68,2.48,1.91,2.93,3.33c1.39-0.53,2.99-0.5,4.42,0.22c1.44,0.73,2.42,2,2.82,3.45c0.56-0.2,1.15-0.31,1.77-0.31v8.5h-4.58
		c-0.3-0.46-0.54-0.98-0.7-1.52c-1.35,0.46-2.88,0.4-4.25-0.29c-1.38-0.69-2.34-1.89-2.77-3.25c-1.34,0.51-2.87,0.5-4.27-0.15
		c-0.78-0.37-1.44-0.89-1.93-1.52c-0.42-0.5-0.73-1.05-0.94-1.65c-1.33,0.55-2.86,0.58-4.28-0.02c-1.41-0.61-2.45-1.74-2.96-3.07
		c-1.3,0.58-2.83,0.67-4.27,0.11c-1.44-0.57-2.49-1.65-3.05-2.96c-1.28,0.63-2.8,0.77-4.25,0.26c-1.45-0.5-2.55-1.55-3.16-2.83
		c-1.25,0.68-2.75,0.88-4.21,0.44c-1.46-0.44-2.61-1.43-3.27-2.67c-1.21,0.73-2.69,1-4.17,0.64c-1.47-0.36-2.65-1.28-3.38-2.48
		c-1.15,0.79-2.6,1.15-4.09,0.89c-1.47-0.27-2.7-1.09-3.51-2.22c-1.08,0.86-2.48,1.32-3.96,1.18c-1.46-0.14-2.74-0.84-3.63-1.87
		c-0.97,0.93-2.29,1.52-3.75,1.54c-1.43,0.01-2.75-0.52-3.74-1.4c-0.82,1.02-2.01,1.75-3.41,1.98c-1.36,0.22-2.68-0.08-3.77-0.75
		c-0.6,1.1-1.59,2-2.86,2.48c-1.22,0.46-2.51,0.46-3.67,0.08c-0.32,1.16-1.02,2.22-2.07,2.98c-1.03,0.75-2.23,1.09-3.42,1.04
		c0.02,1.19-0.35,2.39-1.13,3.4c-0.79,1.04-1.87,1.71-3.05,2c0.35,1.18,0.31,2.48-0.2,3.7c-0.55,1.31-1.55,2.3-2.74,2.85
		c0.64,1.2,0.83,2.64,0.44,4.05c-0.39,1.41-1.29,2.54-2.45,3.25c0.75,1.11,1.11,2.51,0.88,3.95c-0.23,1.42-0.98,2.63-2.03,3.46
		c0.87,1,1.39,2.32,1.36,3.75c0,0,0,0-0.01,0c-0.03,1.41-0.59,2.68-1.49,3.64c0.99,0.85,1.67,2.05,1.85,3.45
		c0.17,1.38-0.18,2.7-0.9,3.77c1.09,0.69,1.94,1.76,2.34,3.09c0.4,1.34,0.26,2.71-0.28,3.88c1.19,0.5,2.21,1.42,2.82,2.68
		c0.61,1.27,0.69,2.66,0.32,3.92c1.28,0.31,2.44,1.08,3.24,2.25c0.8,1.19,1.08,2.57,0.89,3.89c1.32,0.13,2.61,0.75,3.56,1.83
		c0.96,1.09,1.42,2.46,1.37,3.81c1.36-0.02,2.73,0.46,3.81,1.45c1.09,1,1.69,2.34,1.77,3.71c1.37-0.16,2.8,0.19,3.98,1.1
		c1.19,0.91,1.9,2.21,2.1,3.59c1.37-0.27,2.84-0.03,4.09,0.8c1.26,0.83,2.07,2.1,2.36,3.47c1.36-0.36,2.85-0.2,4.17,0.56
		s2.2,1.99,2.56,3.35c1.35-0.43,2.86-0.35,4.22,0.35c1.36,0.7,2.31,1.9,2.73,3.25c1.33-0.5,2.86-0.48,4.25,0.17
		c1.4,0.65,2.39,1.81,2.86,3.16c1.32-0.55,2.86-0.59,4.27,0.01c1.43,0.61,2.46,1.74,2.98,3.08c1.31-0.59,2.84-0.68,4.28-0.11
		c1.45,0.57,2.52,1.68,3.07,3c1.29-0.63,2.83-0.75,4.29-0.22c1.46,0.54,2.56,1.62,3.14,2.94c1.28-0.66,2.82-0.81,4.3-0.31
		c1.47,0.51,2.59,1.57,3.2,2.88c1.03-0.55,2.23-0.78,3.45-0.59l0.67,10.72c-1.02,0.3-2.13,0.3-3.21-0.05
		c-1.51-0.49-2.67-1.57-3.29-2.91c-1.3,0.7-2.88,0.87-4.39,0.36c-1.51-0.52-2.65-1.63-3.24-2.98c-1.32,0.68-2.9,0.82-4.4,0.28
		c-1.51-0.55-2.62-1.69-3.19-3.05c-1.34,0.64-2.93,0.75-4.42,0.17c-1.49-0.59-2.58-1.75-3.12-3.14c-1.35,0.62-2.95,0.68-4.42,0.06
		c-1.48-0.63-2.54-1.83-3.04-3.24c-1.38,0.57-2.98,0.59-4.44-0.09c-1.46-0.68-2.48-1.93-2.93-3.35c-1.4,0.52-3.01,0.47-4.45-0.27
		s-2.41-2.03-2.79-3.48c-1.43,0.46-3.05,0.34-4.45-0.47c-1.41-0.82-2.32-2.16-2.63-3.64c-1.47,0.39-3.08,0.17-4.44-0.73
		c-1.37-0.9-2.21-2.31-2.42-3.81c-1.5,0.29-3.11-0.04-4.41-1.04c-1.32-1-2.05-2.48-2.15-4.01c-1.52,0.17-3.12-0.29-4.34-1.41
		c-1.23-1.13-1.83-2.69-1.78-4.23c-1.56,0.02-3.11-0.61-4.22-1.86C100.943,212.559,100.514,210.919,100.733,209.379z"/>
	<path style="fill:#A67C52;" d="M330.973,430.589c0,0-13-5.5-13.13-11.22c-0.016-0.725-0.01-1.44,0.19-2.11
		c-1.34-0.11-2.62-0.71-3.58-1.76c-0.02-0.02-0.05-0.05-0.07-0.08c-0.03-0.03-0.06-0.07-0.09-0.11c-0.03-0.04-0.06-0.07-0.09-0.11
		c-0.02-0.03-0.05-0.06-0.07-0.09c-0.78-1.03-1.14-2.27-1.1-3.48c-1.3,0.02-2.61-0.41-3.68-1.31c-1.07-0.92-1.71-2.16-1.88-3.46
		c-1.29,0.24-2.67,0.02-3.88-0.72c-1.23-0.75-2.06-1.9-2.42-3.18c-1.26,0.43-2.69,0.4-4.01-0.18c-1.34-0.6-2.32-1.66-2.84-2.91
		c-1.23,0.59-2.67,0.73-4.07,0.27c-1.42-0.46-2.52-1.43-3.16-2.65c-1.19,0.72-2.64,0.99-4.09,0.65c-0.39-0.09-0.77-0.22-1.12-0.4
		l0.64-10.17c0.93-0.31,1.95-0.38,2.98-0.14c1.6,0.37,2.88,1.42,3.6,2.77c1.32-0.79,2.96-1.03,4.54-0.52
		c1.59,0.51,2.78,1.68,3.38,3.11c1.4-0.67,3.08-0.74,4.62-0.06c1.55,0.69,2.62,2.01,3.05,3.52c1.49-0.51,3.2-0.37,4.65,0.52
		c1.46,0.9,2.36,2.37,2.57,3.95c1.58-0.29,3.27,0.1,4.58,1.22c1.32,1.13,1.98,2.75,1.93,4.35c1.61-0.02,3.22,0.65,4.33,1.99
		c1.21,1.45,1.54,3.32,1.06,5C330.723,413.839,330.973,430.589,330.973,430.589z"/>
	<path style="fill:#A67C52;" d="M340.023,323.799c0.97,1.61,1.1,3.67,0.14,5.45c-0.97,1.82-2.81,2.87-4.74,2.91
		c0.09,1.88-0.79,3.76-2.49,4.86c-1.59,1.04-3.53,1.15-5.16,0.46c-0.6,1.6-1.94,2.89-3.72,3.37c-1.69,0.46-3.42,0.07-4.72-0.9
		c-0.89,1.33-2.35,2.26-4.06,2.42c-1.67,0.15-3.24-0.46-4.35-1.54c-1.02,1.15-2.52,1.88-4.18,1.87c-1.64-0.01-3.11-0.74-4.11-1.89
		c-1.08,1.05-2.6,1.66-4.22,1.54c-1.62-0.12-3.02-0.92-3.95-2.1c-1.12,0.98-2.65,1.5-4.25,1.32c-1.6-0.19-2.96-1.04-3.83-2.25
		c-0.27,0.22-0.57,0.42-0.88,0.58c-1,0.53-2.18,0.76-3.39,0.58c-1.58-0.23-2.9-1.12-3.73-2.34c-1.18,0.9-2.71,1.32-4.28,1.05
		c-1.57-0.27-2.87-1.18-3.67-2.42c-1.19,0.87-2.73,1.27-4.29,0.97c-1.56-0.3-2.84-1.23-3.62-2.47c-1.2,0.85-2.73,1.22-4.29,0.91
		c-1.55-0.32-2.82-1.26-3.58-2.51c-1.21,0.84-2.74,1.2-4.29,0.87c-1.54-0.33-2.8-1.28-3.56-2.53c-1.21,0.83-2.74,1.17-4.28,0.84
		c-1.54-0.34-2.79-1.29-3.54-2.55c-1.21,0.82-2.74,1.16-4.28,0.82c-1.54-0.34-2.78-1.29-3.53-2.54c-1.21,0.82-2.74,1.15-4.27,0.81
		s-2.78-1.29-3.52-2.54c-1.21,0.82-2.74,1.15-4.27,0.82c-1.54-0.34-2.78-1.29-3.53-2.54c-1.2,0.82-2.73,1.17-4.26,0.84
		c-1.54-0.34-2.78-1.27-3.54-2.51c-1.2,0.82-2.71,1.17-4.25,0.85s-2.78-1.25-3.54-2.48c-1.19,0.84-2.7,1.2-4.23,0.9
		c-1.54-0.31-2.79-1.22-3.57-2.44c-1.1,0.78-2.48,1.17-3.92,0.98c-0.1-0.01-0.2-0.02-0.3-0.04c-1.53-0.29-2.79-1.18-3.59-2.39
		c-1.16,0.86-2.65,1.26-4.19,1.01c-1.53-0.26-2.8-1.13-3.62-2.32c-1.14,0.88-2.62,1.31-4.16,1.08c-1.53-0.22-2.82-1.06-3.66-2.22
		c-1.11,0.9-2.58,1.37-4.11,1.18c-1.53-0.18-2.84-0.98-3.71-2.11c-1.08,0.93-2.52,1.44-4.05,1.31c-1.52-0.13-2.85-0.87-3.76-1.96
		c-1.03,0.96-2.44,1.53-3.96,1.47s-2.86-0.72-3.82-1.75c-0.97,1.01-2.32,1.64-3.83,1.68c-1.49,0.03-2.86-0.53-3.87-1.47
		c-0.88,1.05-2.15,1.78-3.62,1.94c-1.45,0.16-2.82-0.26-3.9-1.07c-0.74,1.11-1.89,1.95-3.28,2.29c-1.35,0.32-2.71,0.12-3.85-0.49
		c-0.53,1.15-1.46,2.12-2.7,2.69c-1.18,0.54-2.44,0.63-3.61,0.34c-0.23,1.15-0.83,2.23-1.78,3.06c-0.91,0.79-2.01,1.24-3.13,1.33
		c0.15,1.11-0.05,2.28-0.62,3.34c-0.6,1.08-1.5,1.89-2.55,2.37c0.54,1.05,0.74,2.28,0.5,3.52c-0.25,1.32-0.95,2.44-1.91,3.22
		c0.86,0.94,1.39,2.18,1.43,3.55c0.03,1.42-0.47,2.73-1.33,3.73c1.05,0.82,1.81,2.02,2.05,3.44c0.23,1.4-0.08,2.76-0.79,3.87
		c1.13,0.65,2.04,1.7,2.48,3.04c0.44,1.31,0.35,2.67-0.15,3.86c1.2,0.43,2.25,1.28,2.92,2.48c0.66,1.19,0.84,2.52,0.6,3.75
		c1.24,0.19,2.43,0.8,3.32,1.83c0.9,1.02,1.34,2.29,1.36,3.55c1.26-0.07,2.56,0.29,3.65,1.12c1.11,0.85,1.8,2.03,2.06,3.3
		c1.26-0.32,2.64-0.19,3.88,0.46c1.27,0.66,2.17,1.75,2.63,3c1.23-0.52,2.65-0.59,4.01-0.1c1.38,0.5,2.43,1.49,3.04,2.7
		c1.19-0.67,2.63-0.91,4.06-0.55c1.45,0.37,2.62,1.27,3.34,2.45c1.14-0.79,2.58-1.15,4.06-0.9c1.49,0.25,2.74,1.09,3.55,2.23
		c1.1-0.88,2.54-1.34,4.05-1.17c1.51,0.17,2.82,0.95,3.7,2.06c1.06-0.94,2.48-1.47,4.01-1.37c1.54,0.11,2.88,0.83,3.81,1.91
		c1.03-0.98,2.45-1.57,3.99-1.51c1.54,0.05,2.92,0.74,3.88,1.8c1.01-1.02,2.42-1.65,3.97-1.63c1.55,0.02,2.95,0.68,3.94,1.72
		c0.99-1.04,2.39-1.7,3.95-1.71c1.39-0.01,2.66,0.5,3.64,1.34l0.49,7.94c-0.02-0.02-0.03-0.03-0.05-0.05
		c-1,1.08-2.42,1.76-4.01,1.77c-1.58,0.01-3.02-0.65-4.03-1.72c-1.02,1.07-2.46,1.73-4.05,1.71c-1.59-0.02-3.02-0.71-4.02-1.81
		c-1.04,1.05-2.5,1.69-4.1,1.63c-1.6-0.06-3.02-0.79-3.99-1.92c-1.07,1.02-2.56,1.61-4.17,1.5c-1.61-0.11-3.01-0.9-3.94-2.07
		c-1.12,0.99-2.64,1.52-4.25,1.34c-1.62-0.18-2.99-1.04-3.87-2.27c-1.18,0.94-2.75,1.4-4.35,1.12h-0.01
		c-1.62-0.28-2.95-1.24-3.75-2.53c-1.26,0.87-2.87,1.21-4.47,0.81c-1.62-0.41-2.88-1.49-3.58-2.87c-1.35,0.77-3.02,0.96-4.59,0.39
		c-1.6-0.58-2.76-1.82-3.3-3.3c-1.46,0.62-3.17,0.6-4.68-0.19c-1.54-0.8-2.54-2.23-2.85-3.8c-1.57,0.39-3.29,0.09-4.68-0.97
		c-1.4-1.06-2.14-2.67-2.16-4.31c-1.64,0.1-3.3-0.54-4.46-1.87c-1.16-1.34-1.57-3.07-1.25-4.69c-1.62-0.24-3.12-1.21-3.98-2.75
		c-0.86-1.54-0.9-3.31-0.27-4.81c-1.53-0.56-2.79-1.78-3.34-3.43c-0.54-1.64-0.28-3.35,0.59-4.7c-1.38-0.79-2.41-2.17-2.69-3.86
		c-0.28-1.68,0.23-3.3,1.25-4.5c-1.25-0.98-2.07-2.48-2.12-4.2c-0.05-1.76,0.74-3.35,2-4.39c-1.11-1.24-1.66-2.96-1.32-4.72
		c0.34-1.82,1.55-3.26,3.12-3.98c-0.8-1.56-0.83-3.47,0.07-5.12c0.91-1.68,2.57-2.7,4.34-2.85c-0.22-1.76,0.4-3.59,1.84-4.85
		c1.41-1.22,3.26-1.61,4.94-1.19c0.33-1.67,1.44-3.16,3.1-3.92c1.61-0.74,3.4-0.63,4.85,0.13c0.69-1.47,2.01-2.62,3.71-3.03
		c1.65-0.4,3.32,0,4.58,0.95c0.87-1.3,2.29-2.22,3.97-2.4c1.65-0.19,3.21,0.39,4.34,1.43c0.99-1.17,2.45-1.93,4.1-1.97
		c1.64-0.04,3.12,0.64,4.16,1.76c1.05-1.09,2.54-1.74,4.17-1.68c1.62,0.06,3.04,0.82,4.01,1.97c1.09-1.02,2.6-1.59,4.21-1.45
		c1.61,0.14,2.99,0.95,3.9,2.13c1.13-0.97,2.64-1.48,4.24-1.29c1.59,0.19,2.94,1.04,3.81,2.25c1.15-0.94,2.68-1.4,4.26-1.17
		c1.58,0.23,2.9,1.11,3.73,2.33c1.17-0.9,2.7-1.33,4.27-1.06c1.57,0.26,2.87,1.17,3.68,2.4c0.56-0.42,1.21-0.73,1.89-0.9
		c0.76-0.2,1.57-0.24,2.39-0.09c1.56,0.29,2.85,1.21,3.64,2.45c1.19-0.85,2.72-1.23,4.28-0.92c1.55,0.3,2.82,1.24,3.6,2.49
		c1.2-0.85,2.73-1.21,4.28-0.89c1.55,0.33,2.81,1.27,3.57,2.52c1.21-0.83,2.74-1.18,4.29-0.85c1.54,0.34,2.79,1.29,3.55,2.54
		c1.21-0.82,2.74-1.17,4.28-0.83c1.54,0.34,2.79,1.3,3.54,2.55c1.21-0.82,2.74-1.16,4.28-0.82c1.53,0.34,2.77,1.29,3.52,2.54
		c1.21-0.81,2.73-1.15,4.27-0.81c1.53,0.34,2.77,1.29,3.52,2.54c1.21-0.81,2.73-1.15,4.27-0.82c1.53,0.34,2.77,1.28,3.53,2.52
		c1.19-0.82,2.72-1.17,4.25-0.84c1.53,0.32,2.78,1.26,3.54,2.49c1.19-0.82,2.69-1.18,4.23-0.87s2.79,1.23,3.56,2.46
		c1.18-0.84,2.69-1.22,4.22-0.93c1.53,0.3,2.79,1.2,3.58,2.41c1.16-0.86,2.66-1.25,4.19-0.99c1.53,0.26,2.8,1.14,3.61,2.33
		c1.14-0.88,2.62-1.3,4.15-1.08c0.88,0.13,1.68,0.47,2.36,0.96c0.5,0.34,0.94,0.78,1.3,1.27c1.11-0.9,2.55-1.37,4.09-1.19
		c1.52,0.18,2.83,0.96,3.7,2.08c1.07-0.93,2.49-1.45,4.02-1.34c1.5,0.11,2.83,0.82,3.75,1.87c1-0.97,2.37-1.56,3.87-1.55
		c1.48,0.01,2.82,0.6,3.8,1.56c0.9-1.02,2.17-1.71,3.63-1.85c1.41-0.13,2.75,0.29,3.8,1.07c0.71-1.06,1.8-1.89,3.14-2.25
		c1.24-0.33,2.49-0.21,3.59,0.25c0.4-1.06,1.12-2,2.14-2.67c0.9-0.58,1.9-0.87,2.9-0.89c-0.05-0.96,0.16-1.95,0.65-2.86
		c0.51-0.96,1.27-1.71,2.16-2.2c-0.56-0.91-0.85-1.99-0.8-3.14c0.06-1.13,0.46-2.16,1.08-3c-0.84-0.61-1.53-1.46-1.93-2.51
		c-0.42-1.09-0.46-2.23-0.2-3.28c-1.1-0.27-2.12-0.87-2.9-1.8c-0.85-1.01-1.28-2.24-1.3-3.47c-1.26,0.06-2.55-0.32-3.62-1.15
		c-1.13-0.88-1.82-2.11-2.05-3.41c-1.31,0.29-2.73,0.1-3.98-0.64c-1.28-0.75-2.14-1.94-2.51-3.27c-1.31,0.44-2.79,0.39-4.14-0.26
		c-1.37-0.66-2.33-1.81-2.8-3.14c-1.3,0.54-2.81,0.59-4.22,0c-1.41-0.59-2.45-1.7-2.98-3.02c-1.29,0.61-2.82,0.72-4.26,0.19
		c-1.45-0.54-2.54-1.62-3.12-2.93c-1.23,0.63-2.7,0.8-4.11,0.37l0.67-10.69c0.87-0.15,1.78-0.09,2.68,0.21
		c1.52,0.52,2.67,1.63,3.27,2.99c1.32-0.68,2.92-0.83,4.43-0.27c1.51,0.56,2.63,1.71,3.19,3.1c1.35-0.64,2.96-0.73,4.46-0.1
		c1.5,0.62,2.58,1.83,3.08,3.26c1.4-0.58,3.03-0.59,4.5,0.13c1.48,0.71,2.5,2.01,2.9,3.48c1.46-0.49,3.12-0.37,4.55,0.48
		c1.45,0.85,2.36,2.27,2.62,3.8c1.55-0.34,3.22-0.01,4.57,1.03c1.37,1.07,2.1,2.66,2.12,4.27c1.65-0.07,3.31,0.59,4.46,1.95
		c1.18,1.4,1.54,3.21,1.13,4.87c1.7,0.41,3.17,1.62,3.84,3.38c0.69,1.82,0.36,3.78-0.73,5.24c1.47,1.06,2.39,2.82,2.29,4.76
		C342.723,321.239,341.614,322.909,340.023,323.799z"/>
	<polygon style="fill:#EA535E;" points="315.489,416.377 323.839,410.4 326.366,414.407 318.044,420.527 	"/>
	<path style="fill:#EA535E;" d="M315.741,416.456c0,0-12.088-2.382-12.627,2.172c-0.539,4.554,3.963,2.465,3.783,6.221
		c-0.18,3.756,1.349,5.539,3.913,5.321c2.565-0.218,7.764-11.518,7.764-11.518L315.741,416.456z"/>
</g>
</svg>